<?xml version="1.0" encoding="UTF-8" standalone="no"?>
<!DOCTYPE svg PUBLIC "-//W3C//DTD SVG 1.1//EN" "http://www.w3.org/Graphics/SVG/1.1/DTD/svg11.dtd">
<svg width="100%" height="100%" viewBox="0 0 976 976" version="1.1" xmlns="http://www.w3.org/2000/svg" xmlns:xlink="http://www.w3.org/1999/xlink" xml:space="preserve" xmlns:serif="http://www.serif.com/" style="fill-rule:evenodd;clip-rule:evenodd;stroke-linejoin:round;stroke-miterlimit:2;">
    <path d="M795.472,29.825C795.472,13.364 782.108,0 765.648,0L209.943,0C193.482,0 180.118,13.364 180.118,29.825L180.118,945.766C180.118,962.227 193.482,975.591 209.943,975.591L765.648,975.591C782.108,975.591 795.472,962.227 795.472,945.766L795.472,29.825ZM728.74,75.797C728.74,66.557 721.238,59.055 711.998,59.055L263.592,59.055C254.352,59.055 246.85,66.557 246.85,75.797L246.85,403.731C246.85,412.971 254.352,420.472 263.592,420.472L711.998,420.472C721.238,420.472 728.74,412.971 728.74,403.731L728.74,75.797ZM251.105,23.953C254.364,23.953 257.011,26.599 257.011,29.858C257.011,33.118 254.364,35.764 251.105,35.764C247.846,35.764 245.199,33.118 245.199,29.858C245.199,26.599 247.846,23.953 251.105,23.953Z"/>
</svg>
